<?xml version="1.0" encoding="UTF-8"?>
<!DOCTYPE svg PUBLIC "-//W3C//DTD SVG 1.1//EN" "http://www.w3.org/Graphics/SVG/1.1/DTD/svg11.dtd">
<!-- Creator: CorelDRAW -->
<svg xmlns="http://www.w3.org/2000/svg" xml:space="preserve" width="2048px" height="2048px" style="shape-rendering:geometricPrecision; text-rendering:geometricPrecision; image-rendering:optimizeQuality; fill-rule:evenodd; clip-rule:evenodd"
viewBox="0 0 2048 2048"
 xmlns:xlink="http://www.w3.org/1999/xlink">
 <defs>
  <style type="text/css">
   <![CDATA[
    .fil5 {fill:none}
    .fil4 {fill:#202020;fill-rule:nonzero}
    .fil1 {fill:#474747;fill-rule:nonzero}
    .fil0 {fill:#7F7F7F;fill-rule:nonzero}
    .fil2 {fill:#BDBDBD;fill-rule:nonzero}
    .fil3 {fill:#C8C8C8;fill-rule:nonzero}
   ]]>
  </style>
 </defs>
 <g id="Layer_x0020_1">
  <metadata id="CorelCorpID_0Corel-Layer"/>
  <g id="_584198656">
   <path id="_584199496" class="fil0" d="M1367.48 446.642c85.0087,-6.69213 166.161,26.5406 237.295,93.0946 68.5749,64.1587 127.754,159.654 171.514,280.06l15.711 43.2319 -45.9402 -0.858662c-86.5158,-1.61575 -167.884,-32.9799 -246.389,-84.3816 -76.1682,-49.8697 -149.751,-118.727 -222.871,-197.382l90.6792 -133.763z"/>
   <path id="_584199544" class="fil1" d="M1475.98 364.529c-22.4469,38.2548 -62.8949,106.319 -104.232,169.519 -43.1268,65.9351 -88.9666,129.382 -122.107,157.696l-41.1319 -48.0709c27.6496,-23.6221 69.6875,-82.3571 110.213,-144.315 42.3142,-64.6926 81.2977,-130.243 102.745,-166.794l54.5126 31.9654z"/>
   <path id="_584199352" class="fil2" d="M1039.53 507.717c50.3646,16.8248 97.2296,43.1717 137.726,76.8296 13.0323,10.8319 18.3685,15.2563 20.1402,16.7162l-0.0318898 0.0377953c48.893,40.7859 58.1327,48.489 125.819,91.9099 61.826,39.6626 102.545,91.2981 125.032,150.525 34.3618,90.5032 25.1055,197.361 -16.9713,304.839 -40.8945,104.461 -113.112,210.15 -206.232,301.688 -136.736,134.413 -319.295,238.947 -514.75,264.925l-4.08898 0.248032c-82.1327,0.204331 -157.368,-21.3036 -221.776,-55.839 -68.9564,-36.9768 -125.602,-88.9879 -165.077,-145.321 -40.415,-57.6756 -63.1772,-120.553 -63.3178,-177.556 -0.0779528,-31.1811 6.53977,-60.7063 20.6138,-86.9505l5.07993 -7.063c20.328,-21.1701 38.8335,-37.7847 55.18,-52.4563l-0.0555119 -0.0625985c33.1146,-29.7236 55.93,-50.2087 68.6776,-92.752l39.2705 -186.247 0.990946 -3.5941c35.8784,-107.398 82.4918,-191.36 135.449,-255.076 67.4693,-81.1772 145.206,-129.521 224.434,-151.601 79.6796,-22.2059 160.547,-17.7012 233.887,6.79961z"/>
   <path id="_584198440" class="fil3" d="M257.077 1314.94c2.38819,-23.1555 8.78741,-45.1181 19.539,-65.1674l5.07993 -7.063c20.328,-21.1701 38.8335,-37.7847 55.18,-52.4563l-0.0555119 -0.0625985c33.1146,-29.7236 55.93,-50.2087 68.6776,-92.752l11.3268 -53.7213c2.83701,-6.47245 5.39056,-13.4244 7.65945,-20.9977l28.9394 -137.251c34.7492,-96.88 78.5221,-173.675 127.785,-232.947 60.143,-72.3615 128.444,-118.635 198.688,-143.47 29.5607,2.92205 58.5083,9.2256 86.3316,18.5209 48.4985,16.2012 93.6249,41.5713 132.621,73.9819 12.5492,10.4303 17.6882,14.6906 19.3925,16.0961l-0.0307087 0.0366142c47.0811,39.2729 55.9784,46.6914 121.156,88.5024 59.5335,38.1922 98.7426,87.9142 120.397,144.945 33.0874,87.1489 24.1748,190.045 -16.3417,293.54 -39.3792,100.589 -108.919,202.36 -198.587,290.504 -124.827,122.708 -289.315,219.542 -466.444,250.589 -22.5862,-8.48623 -44.2843,-18.3898 -64.9878,-29.491 -77.7142,-41.6729 -141.554,-100.289 -186.041,-163.777 -40.278,-57.4796 -64.9938,-119.544 -70.2851,-177.56z"/>
   <path id="_584198920" class="fil4" d="M1205.95 605.344c-1.46339,-1.23307 -4.24725,-3.55748 0.00708662,-0.00826772l-0.00708662 0.00826772z"/>
   <path id="_584198848" class="fil4" d="M1205.93 605.359c1.18937,0.980316 0.785434,0.634252 0.0129921,-0.0153543l-0.0129921 0.0153543z"/>
  </g>
 </g>
 <rect class="fil5" width="2048" height="2048"/>
</svg>
